<?xml version="1.0" encoding="UTF-8"?>
<svg id="Capa_2" data-name="Capa 2" xmlns="http://www.w3.org/2000/svg" viewBox="0 0 212.11 188.96">
  <defs>
    <style>
      .cls-1 {
        fill: #2c2c2d;
      }

      .cls-2 {
        fill: #fbb81b;
      }
    </style>
  </defs>
  <g id="Capa_1-2" data-name="Capa 1">
    <g>
      <path class="cls-1" d="M158.68,175.38c.46,1.6-2.6,1.74-3.69,2-18.23,4.42-26.13,8.71-45.11,2.2-1.76-.6-7.42-3.56-8.37-3.56-1.6,0-16.49,6.37-20.06,7.43-71.86,21.38-105.37-22.3-62.39-83.91,6.92-9.92,15.12-19.31,24.37-27.1.52-.01.39,2.15.32,2.71-.39,2.98-7.16,11.87-9.1,15.44-19.92,36.75-7.96,65.25,36.84,59.57,30.91-3.92,66.4-25.41,88.99-46.29,18.33-16.95,43.07-47.78,40.69-74.2-.26-2.92-1.74-5.74-1.48-8.69,21.76,18.84,10.59,49.56-.8,71.02-1.05,1.98-4.4,6.16-4.77,7.8-.64,2.85.13,6.95-.13,10.04-2.38,28.46-16.58,59.9-50.89,51.48-1.62-.4-8.63-3.26-9.17-3.17-1.71.29-8.29,5.85-10.57,6.76-.04,1.48,12.88,7.1,14.98,7.76,2.29.72,9.67,2.72,11.65,2.72h8.68ZM137.13,156.83c36.28,14.55,55.89-21.3,53.87-52.66l-25.64,29.16c-.54,2.75,5.89,16.17,5.04,17.53-1.07.75-7.54,3.51-8.13,2.99-1.2-3.89-2.26-9.47-4.07-13.01-.21-.41-.06-1.16-1.02-.75-1.18.51-6.46,5.53-8.15,6.82-3.18,2.42-7.57,5.04-10.4,7.56-.74.65-1.7,1.23-1.51,2.38Z"/>
      <path class="cls-2" d="M95.82.05l-8.09,8.37c-27.71,32.04-14.66,96.69,8.22,128.85.31.54.63,1.25.44,1.85-.59,1.89-23.12,7.8-26.49,6.36-17.75-26.22-26.95-60.63-22.41-92.3C51.41,25.89,65.79,7.44,92.82.34c1.01-.27,1.95-.42,3-.29Z"/>
      <path class="cls-2" d="M148.5,52.7c-8.52-3.86-20.69-6.37-18.52,7.44.62,3.95,3.93,5.29,7.27,6.49,9.13,3.28,18.31,3.07,26.17,10.34,2.11,1.95,7.92,9.87,6.8,12.64-.61,1.5-12.34,12.55-13.63,12.77-1.21.21-.76-.26-1.04-.79-2.4-4.7-2.74-5.55-8.11-7.44-8.92-3.13-17.74-2.49-25.59-9.13-11.27-9.52-17.13-38.96-7.72-50.83,1.33-1.68,4.82-3.75,5.05-5.17.52-3.21-5.67-15.16-4.78-16.39,1.94-.5,7.92-2.76,9.48-1.75.68.44,3.72,13.55,4.95,15.4,6.84-.14,13.6,1.02,19.67,4.27v22.14Z"/>
      <path class="cls-2" d="M108.99,134.69c-.21.21-1.86-.02-2.4-.29-1.35-.68-7.92-11.55-9.08-13.67-7.45-13.61-13.26-31.31-14.86-46.79-7.19-69.67,49.49-95.76,90.28-36.39,3.12,4.55,15.36,25.94,14.41,30.36-.34,1.6-2.3,1.04-3.19-.29-1.12-1.67-2.67-7.45-3.82-9.94-11.66-25.29-43.78-65.44-75.14-44.38-28.27,18.99-20.95,71.66-8.7,98.26,3.16,6.86,9.61,14.52,12.02,20.3.27.64.8,2.49.46,2.82Z"/>
      <path class="cls-2" d="M129.35,108.96c.57-.56,10.67,4.01,11.61,4.74.52.41.55,1,.39,1.52-.19.6-9.39,6.75-10.62,6.82-.51.03-1.38-.45-1.38-.81v-12.27Z"/>
    </g>
  </g>
</svg>